<svg width="49.99999999999999" height="24" xmlns="http://www.w3.org/2000/svg">
 <title/>

 <g>
  <title>background</title>
  <rect fill="none" id="canvas_background" height="26" width="52" y="-1" x="-1"/>
 </g>
 <g>
  <title>Layer 1</title>
  <path fill="#575757" id="svg_1" d="m3.89,15.673l2.365,-15.212a0.542,0.542 0 0 1 1.015,-0.172l2.543,4.771l-5.923,10.613zm16.795,3.691l-2.252,-13.999a0.543,0.543 0 0 0 -0.918,-0.295l-14.2,14.294l7.857,4.428a1.62,1.62 0 0 0 1.587,0l7.926,-4.428zm-6.385,-12.216l-1.82,-3.482a0.542,0.542 0 0 0 -0.96,0l-7.99,14.318l10.77,-10.836z"/>
 </g>
</svg>